# xmcd
#
# Track frame offsets:
#	150
#	11475
#	23919
#	35867
#	46250
#	55470
#	65389
#	75805
#	87750
#	99350
#	111607
#	121765
#	134037
#
# Disc length: 1976 seconds
#
# Revision: 0
# Processed by: cddbd v1.5.2PL0 Copyright (c) Steve Scherf et al.
# Submitted via: EasyCDDAExtractor 16.0.8.1
#
DISCID=a707b60d
DTITLE=Arlindo Bettio - Arlindo Bettio - 1978 - Vol. 3 - A Casa Onde Nasci
DYEAR=1978
DGENRE=Forro
TTITLE0=Homenagem Às Domésticas	
TTITLE1=Forró Em Pernambuco	
TTITLE2=Chão Goiano
TTITLE3=Baile Gaúcho
TTITLE4=Xamego Paulista
TTITLE5=A Casa Onde Nasci
TTITLE6=Carimbó No Pará
TTITLE7=Forró Em Minas Gerais
TTITLE8=Festa No Paraná
TTITLE9=Samba Do Ceará
TTITLE10=Saudades De Santa Catarina	
TTITLE11=Recordando Porto Murtinho	
TTITLE12=Valsa Para A Dona Mafalda	
EXTD=
EXTT0=
EXTT1=
EXTT2=
EXTT3=
EXTT4=
EXTT5=
EXTT6=
EXTT7=
EXTT8=
EXTT9=
EXTT10=
EXTT11=
EXTT12=
PLAYORDER=
